<?xml version="1.0" standalone="no"?>
<!DOCTYPE svg PUBLIC "-//W3C//DTD SVG 20010904//EN"
 "http://www.w3.org/TR/2001/REC-SVG-20010904/DTD/svg10.dtd">
<svg version="1.0" xmlns="http://www.w3.org/2000/svg"
 width="82.000000pt" height="90.000000pt" viewBox="0 0 82.000000 90.000000"
 preserveAspectRatio="xMidYMid meet">

<g transform="translate(0.000000,90.000000) scale(0.100000,-0.100000)"
fill="#000000" stroke="none">
<path d="M399 821 c-45 -14 -68 -31 -63 -45 3 -7 -2 -16 -10 -19 -18 -7 -31
-66 -21 -98 7 -20 9 -17 27 25 18 40 24 46 50 46 23 0 97 -26 98 -34 0 0 6
-19 14 -40 13 -39 14 -39 26 -16 7 13 13 40 13 59 0 40 -38 121 -57 121 -6 0
-20 2 -31 5 -11 2 -32 0 -46 -4z"/>
<path d="M450 509 c0 -5 5 -7 10 -4 6 3 10 8 10 11 0 2 -4 4 -10 4 -5 0 -10
-5 -10 -11z"/>
<path d="M341 476 c-30 -13 -21 -57 15 -73 61 -26 72 -11 19 26 -37 25 -47 45
-17 34 9 -4 28 -15 42 -25 27 -21 36 -12 26 25 -4 17 -13 22 -35 22 -17 0 -39
-4 -50 -9z"/>
<path d="M330 381 c0 -8 41 -23 47 -17 2 1 -8 8 -22 14 -14 6 -25 8 -25 3z"/>
<path d="M310 371 c0 -10 19 -25 25 -20 1 2 -3 10 -11 17 -8 7 -14 8 -14 3z"/>
<path d="M335 308 c6 -28 9 -30 42 -26 l28 3 -37 22 c-36 21 -37 21 -33 1z"/>
<path d="M492 296 c-20 -28 -21 -32 -6 -43 21 -15 49 9 49 43 1 35 -18 35 -43
0z"/>
<path d="M66 253 c-6 -14 -5 -15 5 -6 7 7 10 15 7 18 -3 3 -9 -2 -12 -12z"/>
</g>
</svg>
